<svg fill="none" height="32" width="194" xmlns="http://www.w3.org/2000/svg"><path d="M1.389 10.333C.472 10.667 0 11.111 0 11.667V23.86h6.528v-5.75h9.139v-2.444h-9.14v-2.778c0-.361.362-.528 1.056-.528h8.084V9.917H3.917a9.083 9.083 0 00-2.528.416zm32.833.139a6.068 6.068 0 00-2.527-.528c-.917 0-1.75.167-2.528.528-.75.361-1.278.834-1.584 1.39l-6.277 12h3.666l.917-1.75h8.361l.917 1.75h7.055l-6.305-12.056c-.361-.556-.89-1-1.695-1.334zm-7.083 9.222l2.889-5.527 2.889 5.527zM50.306 12c-2.028 1.361-3.056 3-3.056 4.917 0 1.916 1.028 3.555 3.056 4.916 2.055 1.361 4.5 2.056 7.36 2.056H65.5v-2.445h-7.833c-1.361 0-2.278-.583-2.75-1.722-.25-.639-.39-1.555-.39-2.805s.14-2.167.39-2.806c.472-1.139 1.389-1.722 2.75-1.722H65.5V9.944h-7.833c-2.861 0-5.334.667-7.361 2.056zm24.861-1.667c-.917.334-1.39.778-1.39 1.334V22.11c0 .556.473 1 1.39 1.333.778.278 1.61.39 2.528.39h11.75v-2.445H81.36c-.694 0-1.055-.167-1.055-.528v-2.778h9.139V15.64h-9.14v-2.78c0-.361.362-.528 1.056-.528h8.083V9.89h-11.75c-.916.055-1.75.194-2.527.444zm25.389 13.445v-.028h7.027V19l-7.027-2.833zm13.083-13.834v2.445h5.778c.694 0 1.028.167 1.028.528v10.972h6.583V12.917c0-.362.333-.528 1.028-.528h5.777V9.944z" fill="#fff"/><path d="M107.722 4.361c0-.111-.139-.139-.194-.055-1.778 2.75-2.806 4.305-3.695 5.75H93.167c-.14 0-.195.166-.084.222 4.417 1.666 10.806 4.194 14.389 5.583.084.028.25-.056.25-.111z" fill="#f50"/><path d="M141.889 9.96h2.027v12.158h6.668v1.423h-8.695zm16.709 0h2.341l5.267 13.58h-2.111l-1.546-4.122h-5.811l-1.526 4.123h-2.006zm3.449 8.056l-2.299-6.131h-.188l-2.299 6.131zm8.136-8.056h4.849c1.157 0 2.076.118 2.759.355.627.223 1.045.502 1.254.837.223.335.334.795.334 1.381v1.82c0 .545-.153.97-.459 1.277-.307.293-.774.51-1.401.65v.083c.739.125 1.331.384 1.777.774.46.377.69.851.69 1.423v2.281c0 .99-.37 1.688-1.108 2.093-.739.404-1.972.607-3.7.607h-4.995zm4.912 5.942c.85 0 1.456-.125 1.818-.376.376-.265.564-.677.564-1.235v-1.59c0-.517-.188-.88-.564-1.089-.376-.209-1.003-.313-1.881-.313h-2.822v4.603zm.083 6.237c1.017 0 1.735-.105 2.153-.314.418-.21.627-.565.627-1.067v-2.051c0-.363-.076-.65-.23-.858-.139-.224-.362-.384-.669-.482a4.034 4.034 0 00-.815-.146 9.902 9.902 0 00-1.066-.042h-2.968v4.96zm13.632 1.611c-1.157 0-2.536-.112-4.139-.335V21.72c1.617.349 3.038.523 4.264.523 1.031 0 1.784-.111 2.258-.335.473-.237.71-.67.71-1.297v-1.758c0-.586-.167-.997-.501-1.235-.335-.237-.92-.355-1.756-.355h-1.589c-1.323 0-2.264-.265-2.821-.796-.558-.53-.836-1.353-.836-2.469V12.91c0-.74.16-1.34.48-1.8.335-.46.885-.802 1.652-1.025.78-.223 1.846-.335 3.198-.335.905 0 2.069.077 3.49.23v1.528c-1.588-.237-2.801-.356-3.637-.356-1.296 0-2.153.126-2.571.377-.432.265-.648.704-.648 1.318v1.549c0 .474.168.823.502 1.046.348.21.941.314 1.777.314h1.63c.934 0 1.658.112 2.174.335.529.223.898.565 1.107 1.025.223.447.335 1.053.335 1.82v.984c0 .963-.181 1.723-.544 2.281-.348.558-.891.956-1.63 1.193-.738.237-1.707.356-2.905.356z" fill="#fff"/></svg>