<?xml version="1.0" standalone="no"?>
<!DOCTYPE svg PUBLIC "-//W3C//DTD SVG 20010904//EN"
 "http://www.w3.org/TR/2001/REC-SVG-20010904/DTD/svg10.dtd">
<svg version="1.0" xmlns="http://www.w3.org/2000/svg"
 width="2007.000000pt" height="294.000000pt" viewBox="0 0 2007.000000 294.000000"
 preserveAspectRatio="xMidYMid meet">

<g transform="translate(0.000000,294.000000) scale(0.100000,-0.100000)"
fill="#000000" stroke="none">
<path d="M15580 2080 c0 -7 -277 -10 -810 -10 -644 0 -810 -3 -810 -13 0 -14
383 -162 398 -153 6 3 13 -2 16 -11 6 -14 8 -14 21 3 8 10 15 14 15 7 0 -6 6
-13 13 -16 6 -2 4 -3 -6 -1 -9 1 -14 -2 -11 -8 9 -14 99 -5 120 12 17 14 18
13 6 -2 -12 -15 -10 -17 17 -16 20 1 31 7 34 19 3 11 11 19 18 19 10 0 10 -3
1 -12 -17 -17 -15 -28 4 -28 8 0 13 4 9 9 -3 6 4 9 15 8 11 -1 20 -5 20 -9 0
-4 24 -8 53 -7 28 0 46 3 39 6 -6 2 -10 9 -7 13 3 5 12 7 19 4 8 -3 17 -1 21
5 3 6 12 11 18 11 7 0 1 -9 -11 -18 -24 -18 -23 -19 66 -20 78 -2 90 0 88 14
-1 11 8 17 27 19 15 2 27 -1 27 -6 0 -5 -3 -8 -7 -8 -17 3 -33 -1 -33 -8 0 -5
18 -9 40 -9 27 -1 38 2 33 10 -3 6 0 6 8 -1 18 -18 32 -16 25 3 -4 10 -1 14 6
11 7 -2 25 0 40 4 15 4 27 4 27 1 -4 -23 4 -32 29 -32 15 0 33 5 39 11 8 8 17
8 31 0 25 -13 35 -14 27 -2 -3 6 7 6 27 0 44 -12 54 -11 40 3 -17 17 -15 28 6
27 10 0 12 -3 5 -6 -10 -3 -10 -8 1 -19 17 -16 56 -19 56 -3 0 5 -4 7 -10 4
-5 -3 -10 -2 -10 4 0 5 5 13 10 16 6 3 10 1 10 -5 0 -6 5 -8 12 -4 6 4 8 3 5
-3 -9 -15 7 -19 88 -21 50 -2 66 0 55 7 -13 10 -13 11 0 11 13 0 13 1 0 10
-13 8 -12 10 3 10 9 0 17 -6 17 -14 0 -21 20 -30 33 -17 6 6 18 11 26 10 11 0
10 -3 -4 -9 -18 -8 -17 -9 8 -9 20 -1 26 3 21 12 -6 10 -4 10 7 0 7 -7 20 -13
28 -13 14 0 14 2 1 10 -8 5 -12 12 -8 15 3 3 13 -1 21 -10 20 -20 48 -20 41 0
-4 8 -1 15 5 15 6 0 11 -7 11 -15 0 -9 10 -15 26 -15 14 0 23 4 20 8 -3 5 1 9
9 9 8 0 12 -4 8 -9 -7 -13 88 -8 105 5 8 6 12 6 12 -2 0 -14 32 -11 42 4 5 6
8 6 8 -1 0 -7 15 -12 35 -12 28 0 34 3 25 13 -8 9 -8 15 0 20 5 3 13 0 16 -9
3 -8 12 -17 20 -20 9 -3 12 -1 9 4 -4 6 7 15 24 21 l31 11 0 89 0 89 -285 0
c-183 0 -285 -4 -285 -10z m-1081 -184 c-13 -7 -30 -11 -36 -8 -25 8 -13 18
23 19 35 1 35 1 13 -11z m188 8 c-3 -3 -12 -4 -19 -1 -8 3 -5 6 6 6 11 1 17
-2 13 -5z m170 -16 c-3 -8 -6 -5 -6 6 -1 11 2 17 5 13 3 -3 4 -12 1 -19z m343
14 c0 -5 -7 -9 -15 -9 -8 0 -12 4 -9 9 3 4 9 8 15 8 5 0 9 -4 9 -8z m40 -4 c0
-4 -4 -8 -9 -8 -6 0 -12 4 -15 8 -3 5 1 9 9 9 8 0 15 -4 15 -9z m193 -3 c-3
-9 -8 -14 -10 -11 -3 3 -2 9 2 15 9 16 15 13 8 -4z m400 8 c-7 -2 -19 -2 -25
0 -7 3 -2 5 12 5 14 0 19 -2 13 -5z m87 3 c0 -2 -7 -6 -15 -10 -8 -3 -15 -1
-15 4 0 6 7 10 15 10 8 0 15 -2 15 -4z m-760 -16 c0 -5 -5 -10 -11 -10 -5 0
-7 5 -4 10 3 6 8 10 11 10 2 0 4 -4 4 -10z m330 -6 c0 -2 -9 -4 -20 -4 -11 0
-20 4 -20 9 0 5 9 7 20 4 11 -3 20 -7 20 -9z"/>
<path d="M15080 1882 c0 -4 9 -8 20 -8 11 0 20 4 20 8 0 4 -9 8 -20 8 -11 0
-20 -4 -20 -8z"/>
</g>
</svg>
